Coordinates
version=1
nRows=13
nColumns=40
inDegrees=yes

Units are S.I. units (second, meters, Newtons, ...)
Angles are in degrees.

endheader
time	pelvis_tilt	pelvis_list	pelvis_rotation	pelvis_tx	pelvis_ty	pelvis_tz	hip_flexion_r	hip_adduction_r	hip_rotation_r	knee_angle_r	knee_angle_r_beta	ankle_angle_r	subtalar_angle_r	mtp_angle_r	hip_flexion_l	hip_adduction_l	hip_rotation_l	knee_angle_l	knee_angle_l_beta	ankle_angle_l	subtalar_angle_l	mtp_angle_l	lumbar_extension	lumbar_bending	lumbar_rotation	arm_flex_r	arm_add_r	arm_rot_r	elbow_flex_r	pro_sup_r	wrist_flex_r	wrist_dev_r	arm_flex_l	arm_add_l	arm_rot_l	elbow_flex_l	pro_sup_l	wrist_flex_l	wrist_dev_l
     34.79000000	     -6.62495876	     -4.04305196	     -2.28899859	      0.88078820	      0.92357384	      0.51231458	     17.98715982	      3.86180170	     -7.78254486	     21.21689242	     21.21689242	     11.66833932	     -5.25755697	     -2.68414012	     25.11214762	    -11.11881487	      4.79783648	     61.00487004	     61.00487004	     12.68876234	    -19.37120154	     18.09558383	    -12.15594744	      6.95966682	      0.57218874	      6.57656341	    -19.27547476	    -12.75004390	     58.70761462	     45.59369016	      0.00000000	      0.00000000	     12.08131516	    -10.04277379	      4.51417923	     58.19351271	     46.62793237	      0.00000000	      0.00000000
     34.80714286	     -6.30046872	     -3.87748568	     -1.46851740	      0.87978904	      0.92160654	      0.51368123	     18.28489127	      3.73785098	     -7.36119511	     22.98948992	     22.98948992	     12.46016682	     -7.51110032	     -2.65962695	     26.52367721	    -10.90596955	      4.84141679	     61.16292639	     61.16292639	     13.84663333	    -19.42442943	     20.11608705	    -12.40163141	      6.58780592	      0.39840258	      7.51200316	    -19.10099926	    -12.14322776	     60.68043216	     45.50595346	      0.00000000	      0.00000000	     11.87001349	     -9.65970501	      4.34546277	     53.68551355	     46.60956616	      0.00000000	      0.00000000
     34.82428571	     -5.92382546	     -3.75431127	     -0.59430114	      0.87885576	      0.91959486	      0.51501764	     18.46382668	      3.62859898	     -7.20137911	     24.68844245	     24.68844245	     13.31790268	     -9.33835649	     -2.43698566	     27.80261541	    -10.75880375	      4.80077322	     61.02468375	     61.02468375	     14.56566041	    -19.47307001	     20.90692019	    -12.73175124	      6.27586643	      0.20167807	      8.39524917	    -18.89389214	    -11.68668767	     63.11474510	     45.41200953	      0.00000000	      0.00000000	     11.64037715	     -9.36555574	      4.16721719	     49.35260804	     46.59731266	      0.00000000	      0.00000000
     34.84142857	     -5.59206006	     -3.60039238	      0.29224173	      0.87789351	      0.91744286	      0.51617028	     18.69533128	      3.46088400	     -7.16910591	     26.41875570	     26.41875570	     14.31775825	    -10.86168450	     -1.88950894	     29.05487218	    -10.54941488	      4.70110053	     60.61198858	     60.61198858	     15.20595251	    -19.50961375	     21.60742194	    -13.01491653	      5.95962007	      0.28925353	      8.99855115	    -18.82787083	    -11.45358673	     65.73827594	     45.32645920	      0.00000000	      0.00000000	     11.78473068	     -8.85345445	      3.77440138	     44.44568527	     46.61283922	      0.00000000	      0.00000000
     34.85857143	     -5.27541032	     -3.48151462	      1.22589716	      0.87698121	      0.91533687	      0.51715330	     18.80815060	      3.33311965	     -7.23913087	     27.88639819	     27.88639819	     15.04694695	    -12.37226551	     -1.80221754	     30.21904322	    -10.34641441	      4.58906666	     59.82885032	     59.82885032	     15.59628270	    -19.53288193	     21.78013212	    -13.28882881	      5.69900015	     -0.33424656	     10.44142955	    -18.17664752	    -11.36137766	     67.63959879	     45.26789309	      0.00000000	      0.00000000	     10.81007111	     -9.06703441	      3.72499171	     41.81264739	     46.59005087	      0.00000000	      0.00000000
     34.87571429	     -4.98660680	     -3.35906666	      2.15227452	      0.87609407	      0.91330371	      0.51794582	     18.88655388	      3.19118071	     -7.36581721	     29.24533071	     29.24533071	     15.78035016	    -13.69704130	     -1.56005902	     31.28832954	    -10.09000114	      4.45406264	     58.69456802	     58.69456802	     15.92095127	    -19.55124574	     21.95562895	    -13.53761632	      5.42579902	     -0.76043214	     11.77772619	    -17.63545781	    -11.05911594	     69.66489533	     45.19801779	      0.00000000	      0.00000000	     10.12316893	     -9.16144318	      3.56883864	     38.80137839	     46.58146125	      0.00000000	      0.00000000
     34.89285714	     -4.66790724	     -3.35188882	      3.05954671	      0.87525557	      0.91164712	      0.51846899	     18.79384549	      3.16279924	     -7.62029743	     30.37370850	     30.37370850	     16.84877917	    -14.50644494	     -0.16697373	     32.19265765	     -9.88003292	      4.40736578	     57.17740527	     57.17740527	     16.08889956	    -19.53629809	     21.96164058	    -13.78904667	      5.35616012	     -0.30230999	     12.29742456	    -17.96189818	    -10.42293666	     72.57961728	     45.09786698	      0.00000000	      0.00000000	     10.92912167	     -8.41414912	      2.58847532	     32.95289995	     46.68261438	      0.00000000	      0.00000000
     34.91000000	     -4.48430752	     -3.16553169	      3.91099294	      0.87439426	      0.91013899	      0.51868432	     18.75678230	      2.89295193	     -7.92838417	     31.32340761	     31.32340761	     17.41606625	    -15.29978667	     -0.14234722	     33.01634872	     -9.41861456	      4.28070628	     55.22980017	     55.22980017	     16.12454626	    -19.51963616	     21.89927907	    -13.93867843	      5.06421882	     -0.58134217	     13.83162917	    -17.30267159	    -10.57107969	     74.22658743	     45.05767602	      0.00000000	      0.00000000	      9.80613603	     -8.71451879	      2.42138974	     31.57694303	     46.68207560	      0.00000000	      0.00000000
     34.92714286	     -4.36601104	     -3.14243874	      4.74234786	      0.87361560	      0.90910264	      0.51867437	     18.58114941	      2.80294912	     -8.32724281	     31.90125893	     31.90125893	     18.26159813	    -15.68163397	      1.09240502	     33.71700004	     -9.03778095	      4.31969902	     52.83862016	     52.83862016	     15.57694416	    -19.47584373	     20.56828516	    -14.01493906	      5.00514939	     -0.42866159	     14.77861431	    -17.14581186	    -10.23071287	     77.06658760	     44.98031042	      0.00000000	      0.00000000	      9.63150165	     -8.42558365	      1.24588832	     28.08608584	     46.82792867	      0.00000000	      0.00000000
     34.94428571	     -4.30968944	     -3.00121829	      5.48155522	      0.87283207	      0.90850626	      0.51835113	     18.34606542	      2.56271228	     -8.71060561	     32.26174853	     32.26174853	     18.85709439	    -15.93627364	      1.68070332	     34.23987254	     -8.45287373	      4.41171713	     50.09771704	     50.09771704	     14.90509040	    -19.39968385	     19.33257105	    -14.03577692	      4.80759739	     -0.40744778	     16.23241620	    -16.64931503	    -10.23609237	     79.21114839	     44.94756202	      0.00000000	      0.00000000	      8.74025357	     -8.44502805	     -0.04918341	     26.50016587	     46.97712892	      0.00000000	      0.00000000
     34.96142857	     -4.32639190	     -2.80858787	      6.11458864	      0.87213303	      0.90850930	      0.51780563	     17.99047496	      2.27083010	     -9.09288355	     32.25465035	     32.25465035	     19.12622397	    -16.11653770	      1.72523660	     34.58557273	     -7.71148647	      4.68120851	     47.07048854	     47.07048854	     14.45488781	    -19.26244919	     19.06169683	    -14.01959096	      4.54488618	     -0.47008844	     17.90634465	    -16.02405421	    -10.09690789	     80.95830595	     44.89841127	      0.00000000	      0.00000000	      7.52056243	     -8.71581153	     -0.25773032	     25.67218247	     46.98088669	      0.00000000	      0.00000000
     34.97857143	     -4.40007241	     -2.70779685	      6.64611082	      0.87144259	      0.90893680	      0.51713945	     17.55865244	      2.08403014	     -9.49925622	     31.97718814	     31.97718814	     19.32517583	    -16.10911271	      1.88124831	     34.69559528	     -7.13058367	      4.94861274	     43.58598835	     43.58598835	     12.69315604	    -19.04678468	     15.62057450	    -13.98428044	      4.38912969	     -0.20010639	     19.34074580	    -16.01887327	     -9.30326215	     83.35056843	     44.83606050	      0.00000000	      0.00000000	      6.32971415	     -8.86070205	     -1.31525236	     25.20967487	     47.08550472	      0.00000000	      0.00000000
     34.99571429	     -4.59329305	     -2.51056001	      7.09888160	      0.87092983	      0.90968331	      0.51611638	     17.07123538	      1.78193321	     -9.84540557	     31.39950426	     31.39950426	     19.41665809	    -15.93728974	      1.76849141	     34.70997837	     -6.36209195	      5.44628756	     40.05203519	     40.05203519	     11.46474078	    -18.64027437	     13.50743903	    -13.77194115	      4.15753150	     -0.17885404	     21.07674921	    -15.54581162	     -8.82393395	     85.58457272	     44.78211839	      0.00000000	      0.00000000	      4.91223607	     -9.00934801	     -1.91532674	     25.07228966	     47.11554884	      0.00000000	      0.00000000
